<svg width="386" height="400" viewBox="0 0 386 400" fill="none" xmlns="http://www.w3.org/2000/svg">
<path opacity="0.75" d="M0.206634 399.609L110.914 199.915L0.0834961 0H162.246L191.995 53.6622L221.745 0H371.999C375.772 0 385.464 0 385.464 0L273.076 199.915L385.311 399.609C385.311 399.609 375.732 399.609 371.999 399.609H221.622L191.995 346.168L162.369 399.609H0.206634Z" fill="#B82B2B"/>
<line x1="1" y1="-1" x2="198.851" y2="-1" transform="matrix(0.48773 0.872994 -0.873401 0.487002 14 24.9756)" stroke="white" stroke-width="2" stroke-linecap="round"/>
<line x1="1" y1="-1" x2="88.9328" y2="-1" transform="matrix(-0.48773 0.872994 0.873401 0.487002 371.473 24.9756)" stroke="white" stroke-width="2" stroke-linecap="round"/>
<line x1="1" y1="-1" x2="58.9552" y2="-1" transform="matrix(0.48773 0.872994 -0.873401 0.487002 353 344.662)" stroke="white" stroke-width="2" stroke-linecap="round"/>
<line x1="1" y1="-1" x2="58.9552" y2="-1" transform="matrix(-0.48773 0.872994 0.873401 0.487002 193.242 347.659)" stroke="white" stroke-width="2" stroke-linecap="round"/>
</svg>
